<?xml version="1.0" encoding="UTF-8" standalone="no"?>
<!DOCTYPE svg PUBLIC "-//W3C//DTD SVG 1.1//EN" "http://www.w3.org/Graphics/SVG/1.1/DTD/svg11.dtd">
<svg version="1.1" xmlns="http://www.w3.org/2000/svg" xmlns:xlink="http://www.w3.org/1999/xlink" preserveAspectRatio="xMidYMid meet" viewBox="0 0 640 640" width="64" height="64"><defs><path d="M390.21 131.24C390.21 169.87 358.84 201.24 320.21 201.24C281.57 201.24 250.21 169.87 250.21 131.24C250.21 92.6 281.57 61.24 320.21 61.24C358.84 61.24 390.21 92.6 390.21 131.24Z" id="g17eU6XZAy"></path><path d="M370.21 130.82C370.21 158.42 347.8 180.82 320.21 180.82C292.61 180.82 270.21 158.42 270.21 130.82C270.21 103.23 292.61 80.82 320.21 80.82C347.8 80.82 370.21 103.23 370.21 130.82Z" id="h6mTSOt2YE"></path><path d="M310.21 195.26L330.21 195.26L330.21 411.82L310.21 411.82L310.21 195.26Z" id="a10s842m1k"></path><path d="M375.16 245.77C378.96 245.77 382.05 248.86 382.05 252.67C382.05 255.29 382.05 256.26 382.05 258.88C382.05 262.69 378.96 265.77 375.16 265.77C351.8 265.77 288.62 265.77 265.26 265.77C261.45 265.77 258.36 262.69 258.36 258.88C258.36 256.26 258.36 255.29 258.36 252.67C258.36 248.86 261.45 245.77 265.26 245.77C288.62 245.77 351.8 245.77 375.16 245.77Z" id="b3qEIER3Ve"></path><path d="M452.77 334.18C455.55 331.32 487.89 304.13 481.97 290.18C474.75 273.17 465.23 285.29 456.9 272.32C448.57 259.35 459.99 251.19 473.39 246.55C486.79 241.91 502.52 258.9 508.44 276.44C514.37 293.99 519.73 310.39 468.24 353.84C416.74 397.29 341.02 438.05 322.77 435.21C310.61 433.32 307.28 425.78 312.77 412.59C382.95 384.21 429.61 358.07 452.77 334.18Z" id="a4HP2jHjA"></path><path d="M187.64 334.18C184.87 331.32 152.52 304.13 158.44 290.18C165.66 273.17 175.18 285.29 183.52 272.32C191.85 259.35 180.42 251.19 167.02 246.55C153.62 241.91 137.9 258.9 131.97 276.44C126.04 293.99 120.68 310.39 172.17 353.84C223.67 397.29 299.39 438.05 317.64 435.21C329.8 433.32 333.14 425.78 327.64 412.59C257.47 384.21 210.8 358.07 187.64 334.18Z" id="c2kMLSaiTt"></path></defs><g><g><g><use xlink:href="#g17eU6XZAy" opacity="1" fill="#fef8d6" fill-opacity="1"></use></g><g><use xlink:href="#h6mTSOt2YE" opacity="1" fill="#02253b" fill-opacity="1"></use></g><g><use xlink:href="#a10s842m1k" opacity="1" fill="#fef8d6" fill-opacity="1"></use></g><g><use xlink:href="#b3qEIER3Ve" opacity="1" fill="#fef8d6" fill-opacity="1"></use></g><g><use xlink:href="#a4HP2jHjA" opacity="1" fill="#fef8d6" fill-opacity="1"></use></g><g><use xlink:href="#c2kMLSaiTt" opacity="1" fill="#fef8d6" fill-opacity="1"></use></g></g></g></svg>